<svg xmlns="http://www.w3.org/2000/svg" xmlns:xlink="http://www.w3.org/1999/xlink"><defs>
<clipPath id="clip0_58_1">
<rect width="30" height="30" fill="white"/>
</clipPath>
</defs><symbol id="arrow-down" viewBox="0 0 12 8">
<path fill-rule="evenodd" clip-rule="evenodd" d="M10.6 0L6 4.6L1.4 0L0 1.4L6 7.4L12 1.4L10.6 0Z" fill="currentColor"/>
</symbol><symbol id="arrow-right" viewBox="0 0 6 11">
<path d="M0.228824 9.49188C-0.0650263 9.7646 -0.0762935 10.2177 0.203658 10.504C0.48361 10.7902 0.948767 10.8012 1.24262 10.5285C1.24262 10.5285 5.77719 6.25478 5.78955 6.24237C6.07934 5.94705 6.06851 5.47879 5.76535 5.19648L1.24266 0.936081C0.949277 0.662886 0.484101 0.673103 0.203658 0.958904C-0.0767846 1.2447 -0.0662956 1.69786 0.227086 1.97106L3.77451 5.37053C3.97988 5.56734 3.97992 5.8956 3.77459 6.09245L0.228824 9.49188Z" fill="#c4c4c4"/>
</symbol><symbol id="arrow-up" viewBox="0 0 12 8">
<path fill-rule="evenodd" clip-rule="evenodd" d="M1.4 7.40002L6 2.80002L10.6 7.40002L12 6.00002L6 2.43187e-05L0 6.00002L1.4 7.40002Z" fill="currentColor"/>
</symbol><symbol id="big-arrow-left-black" viewBox="0 0 16 29">
<path d="M1.9673 14.1924L14.9422 1.37269C15.2613 1.05741 15.2613 0.551755 14.9422 0.236466C14.6231 -0.0788221 14.1113 -0.0788221 13.7922 0.236466L0.239328 13.6273C-0.0797759 13.9426 -0.0797759 14.4482 0.239328 14.7635L13.7922 28.1484C13.9487 28.3031 14.1595 28.3864 14.3642 28.3864C14.5689 28.3864 14.7796 28.309 14.9362 28.1484C15.2553 27.8331 15.2553 27.3275 14.9362 27.0122L1.9673 14.1924Z" fill="#2F3035"/>
</symbol><symbol id="big-arrow-left" viewBox="0 0 16 29">
<path d="M1.9673 14.1924L14.9422 1.37269C15.2613 1.05741 15.2613 0.551755 14.9422 0.236466C14.6231 -0.0788221 14.1113 -0.0788221 13.7922 0.236466L0.239328 13.6273C-0.0797759 13.9426 -0.0797759 14.4482 0.239328 14.7635L13.7922 28.1484C13.9487 28.3031 14.1595 28.3864 14.3642 28.3864C14.5689 28.3864 14.7796 28.309 14.9362 28.1484C15.2553 27.8331 15.2553 27.3275 14.9362 27.0122L1.9673 14.1924Z" fill="currentColor"/>
</symbol><symbol id="big-arrow-right-black" viewBox="0 0 16 29">
<path d="M13.2143 14.1939L0.239465 27.0137C-0.0796394 27.3289 -0.0796394 27.8346 0.239465 28.1499C0.558568 28.4652 1.07034 28.4652 1.38944 28.1499L14.9423 14.759C15.2614 14.4438 15.2614 13.9381 14.9423 13.6228L1.38944 0.23793C1.2329 0.0832615 1.02217 -2.28882e-05 0.817462 -2.28882e-05C0.612754 -2.28882e-05 0.402025 0.0773125 0.245483 0.23793C-0.0736198 0.553219 -0.0736198 1.05887 0.245483 1.37416L13.2143 14.1939Z" fill="#2F3035"/>
</symbol><symbol id="big-arrow-right" viewBox="0 0 16 29">
<path d="M13.2143 14.1939L0.239465 27.0137C-0.0796394 27.3289 -0.0796394 27.8346 0.239465 28.1499C0.558568 28.4652 1.07034 28.4652 1.38944 28.1499L14.9423 14.759C15.2614 14.4438 15.2614 13.9381 14.9423 13.6228L1.38944 0.23793C1.2329 0.0832615 1.02217 -2.28882e-05 0.817462 -2.28882e-05C0.612754 -2.28882e-05 0.402025 0.0773125 0.245483 0.23793C-0.0736198 0.553219 -0.0736198 1.05887 0.245483 1.37416L13.2143 14.1939Z" fill="currentColor"/>
</symbol><symbol id="block" viewBox="0 0 23 21">
<rect x="1" y="1" width="21" height="19" stroke="currentColor" stroke-width="2"/>
<rect x="7" y="6" width="2" height="2" fill="currentColor" stroke="currentColor" stroke-width="2"/>
<rect x="7" y="13" width="2" height="2" fill="currentColor" stroke="currentColor" stroke-width="2"/>
<rect x="14" y="6" width="2" height="2" fill="currentColor" stroke="currentColor" stroke-width="2"/>
<rect x="14" y="13" width="2" height="2" fill="currentColor" stroke="currentColor" stroke-width="2"/>
</symbol><symbol id="cart" viewBox="0 0 30 23">
<path d="M29.999 0L29.0703 2.5H26.659L22.3165 17.5H5.76777L-0.000976562 3.75H21.014L20.309 6.25H3.75902L7.43027 15H20.4653L24.7553 0H29.999ZM10.624 18.75C9.58902 18.75 8.74902 19.59 8.74902 20.625C8.74902 21.6612 9.58902 22.5 10.624 22.5C11.659 22.5 12.499 21.6612 12.499 20.625C12.499 19.59 11.659 18.75 10.624 18.75ZM19.249 10L16.874 18.75C15.839 18.75 14.999 19.5888 14.999 20.625C14.999 21.6612 15.839 22.5 16.874 22.5C17.909 22.5 18.749 21.6612 18.749 20.625C18.749 19.59 17.909 18.75 16.874 18.75L19.249 10Z" fill="currentColor"/>
</symbol><symbol id="delivery" viewBox="0 0 18 17">
<path d="M11.1708 3.14282H17.0714V15.1641C17.0714 15.6815 16.6056 16 16.1009 16H1.89286C1.3882 16 1 15.6019 1 15.0844V3.14282H6.82298" stroke="currentColor" stroke-width="1.5" stroke-miterlimit="10"/>
<path d="M11.3853 3.14286H17.0165C17.0553 3.14286 17.0942 3.11088 17.0553 3.07889L14.9582 1H3.11323L1.01609 3.07889C0.97725 3.11088 1.01609 3.14286 1.05492 3.14286H6.68614" stroke="currentColor" stroke-width="1.5" stroke-miterlimit="10"/>
<path d="M11.7141 3.14286L10.7824 1H7.38178L6.35693 3.14286" stroke="currentColor" stroke-width="1.5" stroke-miterlimit="10"/>
<path d="M11.7141 3.14282V7.42854L9.10419 5.92274L6.35693 7.42854V3.14282" stroke="currentColor" stroke-width="1.5" stroke-miterlimit="10"/>
<path d="M10.9864 11.7143H7.1218C6.67898 11.7143 6.35693 11.276 6.35693 10.7889V10.4967C6.35693 9.96102 6.71924 9.57141 7.1218 9.57141H10.9461C11.389 9.57141 11.711 10.0097 11.711 10.4967V10.7889C11.7513 11.3247 11.389 11.7143 10.9864 11.7143Z" stroke="currentColor" stroke-width="1.5" stroke-miterlimit="10"/>
</symbol><symbol id="facebook" viewBox="0 0 30 30">
<path d="M17.4188 29.8048C17.2938 29.8252 17.1684 29.8439 17.0425 29.8611C17.1684 29.8439 17.2938 29.8252 17.4188 29.8048Z" fill="currentColor"/>
<path d="M17.7188 29.7535C17.659 29.7645 17.5993 29.7746 17.5396 29.7849C17.5993 29.7746 17.659 29.7645 17.7188 29.7535Z" fill="currentColor"/>
<path d="M16.7072 29.9027C16.5609 29.9192 16.4137 29.9338 16.2661 29.9462C16.4137 29.9338 16.5609 29.9192 16.7072 29.9027Z" fill="currentColor"/>
<path d="M16.9952 29.8674C16.9249 29.8768 16.8542 29.8855 16.7837 29.8938C16.8542 29.8855 16.9249 29.8768 16.9952 29.8674Z" fill="currentColor"/>
<path d="M18.1271 29.6725C18.0745 29.6837 18.0216 29.6949 17.9688 29.7057C18.0216 29.6949 18.0745 29.6837 18.1271 29.6725Z" fill="currentColor"/>
<path d="M19.1404 29.4207C19.0978 29.4328 19.0553 29.4442 19.0127 29.4561C19.0553 29.4442 19.0978 29.4328 19.1404 29.4207Z" fill="currentColor"/>
<path d="M18.834 29.5045C18.7878 29.5166 18.7413 29.529 18.6948 29.5407C18.7413 29.529 18.7878 29.5169 18.834 29.5045Z" fill="currentColor"/>
<path d="M18.433 29.6047C18.384 29.6162 18.3346 29.6269 18.2852 29.6379C18.3346 29.6269 18.384 29.6162 18.433 29.6047Z" fill="currentColor"/>
<path d="M16.2615 29.9467C16.1826 29.9533 16.1036 29.9592 16.0244 29.9645C16.1036 29.9592 16.1826 29.9533 16.2615 29.9467Z" fill="currentColor"/>
<path d="M30 15C30 6.717 23.283 0 15 0C6.717 0 0 6.717 0 15C0 23.283 6.717 30 15 30C15.0881 30 15.1758 29.9982 15.2637 29.9966V18.3197H12.041V14.564H15.2637V11.8002C15.2637 8.59497 17.2204 6.85043 20.0796 6.85043C21.4487 6.85043 22.6257 6.95251 22.9688 6.99806V10.348H20.9972C19.4417 10.348 19.1405 11.0873 19.1405 12.1719V14.564H22.8598L22.375 18.3197H19.1405V29.4205C25.4102 27.6231 30 21.8468 30 15Z" fill="currentColor"/>
<path d="M15.9911 29.9666C15.835 29.9766 15.6782 29.9846 15.521 29.9899C15.6782 29.9846 15.835 29.9766 15.9911 29.9666Z" fill="currentColor"/>
<path d="M15.5127 29.9904C15.4298 29.9931 15.3468 29.9952 15.2637 29.9965C15.3468 29.9952 15.4298 29.9931 15.5127 29.9904Z" fill="currentColor"/>
</symbol><symbol id="favorite-active" viewBox="0 0 24 22">
<path d="M12 3.43498C10.011 -1.96402 0 -1.16202 0 7.00298C0 11.071 3.06 16.484 12 22C20.94 16.484 24 11.071 24 7.00298C24 -1.11502 14 -1.99602 12 3.43498Z" fill="#1C62CD"/>
</symbol><symbol id="favorite" viewBox="0 0 24 24">
<path d="M20.8401 4.60999C20.3294 4.099 19.7229 3.69364 19.0555 3.41708C18.388 3.14052 17.6726 2.99817 16.9501 2.99817C16.2276 2.99817 15.5122 3.14052 14.8448 3.41708C14.1773 3.69364 13.5709 4.099 13.0601 4.60999L12.0001 5.66999L10.9401 4.60999C9.90843 3.5783 8.50915 2.9987 7.05012 2.9987C5.59109 2.9987 4.19181 3.5783 3.16012 4.60999C2.12843 5.64169 1.54883 7.04096 1.54883 8.49999C1.54883 9.95903 2.12843 11.3583 3.16012 12.39L4.22012 13.45L12.0001 21.23L19.7801 13.45L20.8401 12.39C21.3511 11.8792 21.7565 11.2728 22.033 10.6053C22.3096 9.93789 22.4519 9.22248 22.4519 8.49999C22.4519 7.77751 22.3096 7.0621 22.033 6.39464C21.7565 5.72718 21.3511 5.12075 20.8401 4.60999V4.60999Z" stroke="currentColor" fill="currentColor" stroke-width="2" stroke-linecap="round" stroke-linejoin="round"/>
</symbol><symbol id="favorite99" viewBox="0 0 24 22">
<path d="M12 8.22892C12.234 7.10892 13.547 1.99992 17.382 1.99992C19.602 1.99992 22 3.55092 22 7.00292C22 10.9099 18.373 15.4729 12 19.6319C5.627 15.4729 2 10.9099 2 7.00292C2 3.51892 4.369 1.99792 6.577 1.99792C10.5 1.99792 11.722 7.12392 12 8.22892ZM0 7.00292C0 11.0709 3.06 16.4839 12 21.9999C20.94 16.4839 24 11.0709 24 7.00292C24 -0.959077 14.352 -2.02508 12 3.26592C9.662 -1.99608 0 -1.00408 0 7.00292Z" fill="currentColor"/>
</symbol><symbol id="instagram" viewBox="0 0 30 30">
<g clip-path="url(#clip0_58_1)">
<path d="M15.0046 7.29749C10.7509 7.29749 7.30713 10.745 7.30713 14.995C7.30713 19.2487 10.7546 22.6925 15.0046 22.6925C19.2584 22.6925 22.7021 19.245 22.7021 14.995C22.7021 10.7412 19.2546 7.29749 15.0046 7.29749ZM15.0046 19.9912C12.2434 19.9912 10.0084 17.755 10.0084 14.995C10.0084 12.235 12.2446 9.99874 15.0046 9.99874C17.7646 9.99874 20.0009 12.235 20.0009 14.995C20.0021 17.755 17.7659 19.9912 15.0046 19.9912Z" fill="currentColor"/>
<path d="M21.1848 0.095454C18.4248 -0.033296 11.5885 -0.027046 8.82605 0.095454C6.39855 0.209204 4.2573 0.795454 2.53105 2.5217C-0.353954 5.4067 0.0147958 9.29421 0.0147958 14.9955C0.0147958 20.8305 -0.310204 24.628 2.53105 27.4692C5.4273 30.3642 9.37104 29.9855 15.0048 29.9855C20.7848 29.9855 22.7798 29.9892 24.8235 29.198C27.6023 28.1192 29.6998 25.6355 29.9048 21.1742C30.0348 18.413 30.0273 11.578 29.9048 8.81546C29.6573 3.5492 26.831 0.355454 21.1848 0.095454ZM25.5535 25.5605C23.6623 27.4517 21.0385 27.283 14.9685 27.283C8.71854 27.283 6.2123 27.3755 4.38355 25.5417C2.2773 23.4455 2.65855 20.0792 2.65855 14.9755C2.65855 8.0692 1.9498 3.09545 8.88105 2.74045C10.4735 2.6842 10.9423 2.66545 14.951 2.66545L15.0073 2.70295C21.6685 2.70295 26.8948 2.00545 27.2085 8.93545C27.2798 10.5167 27.296 10.9917 27.296 14.9942C27.2948 21.1717 27.4123 23.693 25.5535 25.5605Z" fill="currentColor"/>
<path d="M23.0077 8.79245C24.0012 8.79245 24.8065 7.98712 24.8065 6.9937C24.8065 6.00027 24.0012 5.19495 23.0077 5.19495C22.0143 5.19495 21.209 6.00027 21.209 6.9937C21.209 7.98712 22.0143 8.79245 23.0077 8.79245Z" fill="currentColor"/>
</g>

</symbol><symbol id="large-arrow-down" viewBox="0 0 9 13">
<path fill-rule="evenodd" clip-rule="evenodd" d="M4.25011 0L4.25011 10.9417L1.29455 7.90833L0.555664 8.66667L4.77789 13L9.00011 8.66667L8.26122 7.90833L5.30566 10.9417L5.30566 0H4.25011Z" fill="currentColor"/>
</symbol><symbol id="large-arrow-up" viewBox="0 0 9 13">
<path fill-rule="evenodd" clip-rule="evenodd" d="M4.74989 13L4.74989 2.05833L7.70545 5.09167L8.44434 4.33333L4.22211 0L-0.000108719 4.33333L0.73878 5.09167L3.69434 2.05833L3.69434 13H4.74989Z" fill="currentColor"/>
</symbol><symbol id="like" viewBox="0 0 24 22">
<path d="M12 8.22892C12.234 7.10892 13.547 1.99992 17.382 1.99992C19.602 1.99992 22 3.55092 22 7.00292C22 10.9099 18.373 15.4729 12 19.6319C5.627 15.4729 2 10.9099 2 7.00292C2 3.51892 4.369 1.99792 6.577 1.99792C10.5 1.99792 11.722 7.12392 12 8.22892ZM0 7.00292C0 11.0709 3.06 16.4839 12 21.9999C20.94 16.4839 24 11.0709 24 7.00292C24 -0.959077 14.352 -2.02508 12 3.26592C9.662 -1.99608 0 -1.00408 0 7.00292Z" fill="currentColor"/>
</symbol><symbol id="list" viewBox="0 0 25 19">
<g opacity="0.3">
<rect x="6" width="19" height="3" rx="1.5" fill="currentColor"/>
<rect x="6" y="8" width="19" height="3" rx="1.5" fill="currentColor"/>
<rect x="6" y="16" width="19" height="3" rx="1.5" fill="currentColor"/>
<rect width="3" height="3" rx="1.5" fill="currentColor"/>
<rect y="8" width="3" height="3" rx="1.5" fill="currentColor"/>
<rect y="16" width="3" height="3" rx="1.5" fill="currentColor"/>
</g>
</symbol><symbol id="location" viewBox="0 0 26 30">
<path d="M12.9939 0C6.36497 0 0.96875 5.39623 0.96875 12.0252C0.96875 12.7799 1.03793 13.5409 1.18259 14.283C1.18888 14.327 1.21403 14.4591 1.26435 14.6855C1.44674 15.4969 1.71718 16.2956 2.06938 17.0566C3.36498 20.1069 6.21403 24.7925 12.4656 29.8113C12.6228 29.9371 12.8115 30 13.0002 30C13.1889 30 13.3776 29.9371 13.5348 29.8113C19.7801 24.7925 22.6354 20.1069 23.931 17.0566C24.2832 16.2956 24.5537 15.5031 24.736 14.6855C24.7864 14.4591 24.8115 14.327 24.8178 14.283C24.9562 13.5409 25.0316 12.7799 25.0316 12.0252C25.0191 5.39623 19.6228 0 12.9939 0ZM23.1323 13.9874C23.1323 14 23.126 14.0126 23.126 14.0252C23.1197 14.0566 23.1008 14.1509 23.0694 14.2956C23.0694 14.3019 23.0694 14.3019 23.0694 14.3082C22.9121 15.0126 22.6794 15.6981 22.3713 16.3585C22.365 16.3648 22.365 16.3774 22.3587 16.3836C21.1826 19.1698 18.604 23.4214 12.9939 28.0566C7.38384 23.4214 4.80523 19.1698 3.62913 16.3836C3.62284 16.3774 3.62284 16.3648 3.61655 16.3585C3.31466 15.7044 3.08196 15.0126 2.91843 14.3082C2.91843 14.3019 2.91843 14.3019 2.91843 14.2956C2.8807 14.1509 2.86812 14.0566 2.86183 14.0252C2.86183 14.0126 2.85554 14 2.85554 13.9811C2.72976 13.3333 2.66686 12.6792 2.66686 12.0189C2.66686 6.32704 7.30208 1.69182 12.9939 1.69182C18.6857 1.69182 23.3209 6.32704 23.3209 12.0189C23.3209 12.6855 23.2581 13.3459 23.1323 13.9874Z" fill="currentColor"/>
<path d="M12.9941 4.52197C8.78656 4.52197 5.35889 7.94965 5.35889 12.1572C5.35889 16.3647 8.78656 19.7924 12.9941 19.7924C17.2016 19.7924 20.6293 16.3647 20.6293 12.1572C20.6293 7.94965 17.2016 4.52197 12.9941 4.52197ZM12.9941 18.0943C9.71737 18.0943 7.057 15.4276 7.057 12.1572C7.057 8.88675 9.72366 6.22009 12.9941 6.22009C16.2645 6.22009 18.9312 8.88675 18.9312 12.1572C18.9312 15.4276 16.2708 18.0943 12.9941 18.0943Z" fill="currentColor"/>
</symbol><symbol id="logo-mobile" viewBox="0 0 79 16">
<path d="M0.267188 15C0.200521 15 0.167188 14.9667 0.167188 14.9L0.207188 1.16C0.207188 1.10667 0.233854 1.08 0.287188 1.08L4.02719 1.06C4.76052 1.04667 5.42719 1.22 6.02719 1.58C6.64052 1.94 7.12719 2.42667 7.48719 3.04C7.84719 3.64 8.02719 4.30667 8.02719 5.04V10.78C8.02719 11.5533 7.84052 12.26 7.46719 12.9C7.09385 13.5267 6.59385 14.0267 5.96719 14.4C5.34052 14.7733 4.63385 14.9667 3.84719 14.98L0.267188 15ZM2.60719 12.54H3.84719C4.34052 12.54 4.75385 12.3667 5.08719 12.02C5.43385 11.6733 5.60719 11.26 5.60719 10.78V5.02C5.60719 4.59333 5.44719 4.22667 5.12719 3.92C4.82052 3.6 4.45385 3.44667 4.02719 3.46L2.62719 3.48L2.60719 12.54ZM9.68078 15C9.62745 15 9.60078 14.9667 9.60078 14.9L9.64078 1.16C9.64078 1.10667 9.66745 1.08 9.72078 1.08H13.7608C14.4808 1.08 15.1408 1.26 15.7408 1.62C16.3541 1.96667 16.8408 2.44 17.2008 3.04C17.5608 3.62667 17.7408 4.29333 17.7408 5.04C17.7408 5.53333 17.6674 5.98 17.5208 6.38C17.3741 6.76667 17.2008 7.1 17.0008 7.38C16.8008 7.64667 16.6208 7.84667 16.4608 7.98C17.1808 8.78 17.5408 9.72 17.5408 10.8L17.5608 14.9C17.5608 14.9667 17.5274 15 17.4608 15H15.2008C15.1474 15 15.1208 14.98 15.1208 14.94V10.8C15.1208 10.32 14.9474 9.90667 14.6008 9.56C14.2674 9.2 13.8541 9.02 13.3608 9.02H12.0408L12.0208 14.9C12.0208 14.9667 11.9941 15 11.9408 15H9.68078ZM12.0408 6.62H13.7608C14.1741 6.62 14.5408 6.46667 14.8608 6.16C15.1808 5.85333 15.3408 5.48 15.3408 5.04C15.3408 4.61333 15.1808 4.24667 14.8608 3.94C14.5541 3.63333 14.1874 3.48 13.7608 3.48H12.0408V6.62ZM19.3492 15C19.2826 15 19.2492 14.9667 19.2492 14.9L19.2692 1.16C19.2692 1.10667 19.2959 1.08 19.3492 1.08H21.5892C21.6426 1.08 21.6692 1.10667 21.6692 1.16L21.6892 14.9C21.6892 14.9667 21.6626 15 21.6092 15H19.3492ZM25.6884 15C25.6351 15 25.6018 14.9667 25.5884 14.9L22.8284 1.16C22.8151 1.10667 22.8418 1.08 22.9084 1.08H25.1684C25.2218 1.08 25.2551 1.10667 25.2684 1.16L26.9084 10.32L28.5084 1.16C28.5218 1.10667 28.5551 1.08 28.6084 1.08H30.8484C30.9151 1.08 30.9418 1.10667 30.9284 1.16L28.2084 14.9C28.1951 14.9667 28.1618 15 28.1084 15H25.6884ZM32.1808 15C32.1274 15 32.1008 14.9667 32.1008 14.9L32.1208 1.16C32.1208 1.10667 32.1474 1.08 32.2008 1.08H38.6208C38.6741 1.08 38.7008 1.11333 38.7008 1.18V3.42C38.7008 3.47333 38.6741 3.5 38.6208 3.5H34.5208V6.62H38.6208C38.6741 6.62 38.7008 6.64667 38.7008 6.7L38.7208 8.96C38.7208 9.01333 38.6941 9.04 38.6408 9.04H34.5208V12.54H38.6408C38.6941 12.54 38.7208 12.5733 38.7208 12.64V14.92C38.7208 14.9733 38.6941 15 38.6408 15H32.1808ZM43.548 15C43.4946 15 43.468 14.9667 43.468 14.9L43.508 1.16C43.508 1.10667 43.5346 1.08 43.588 1.08H46.028C46.0813 1.08 46.128 1.10667 46.168 1.16L47.988 3.8L49.808 1.16C49.848 1.10667 49.8946 1.08 49.948 1.08H52.408C52.4613 1.08 52.488 1.10667 52.488 1.16L52.528 14.9C52.528 14.9667 52.5013 15 52.448 15H50.188C50.1346 15 50.108 14.9667 50.108 14.9L50.088 4.7L47.988 7.74L45.908 4.7L45.888 14.9C45.888 14.9667 45.8613 15 45.808 15H43.548ZM57.9102 15.2C57.1902 15.2 56.5302 15.02 55.9302 14.66C55.3435 14.2867 54.8702 13.8 54.5102 13.2C54.1502 12.5867 53.9702 11.9133 53.9702 11.18L53.9902 4.84C53.9902 4.10667 54.1635 3.44 54.5102 2.84C54.8702 2.24 55.3502 1.76 55.9502 1.4C56.5502 1.04 57.2035 0.86 57.9102 0.86C58.6302 0.86 59.2835 1.04 59.8702 1.4C60.4568 1.76 60.9235 2.24 61.2702 2.84C61.6302 3.44 61.8102 4.10667 61.8102 4.84L61.8302 11.18C61.8302 11.9133 61.6502 12.5867 61.2902 13.2C60.9435 13.8 60.4702 14.2867 59.8702 14.66C59.2835 15.02 58.6302 15.2 57.9102 15.2ZM57.9102 12.78C58.3102 12.78 58.6568 12.62 58.9502 12.3C59.2568 11.9667 59.4102 11.5933 59.4102 11.18L59.3902 4.84C59.3902 4.4 59.2502 4.02667 58.9702 3.72C58.6902 3.41333 58.3368 3.26 57.9102 3.26C57.4968 3.26 57.1435 3.41333 56.8502 3.72C56.5568 4.01333 56.4102 4.38667 56.4102 4.84V11.18C56.4102 11.62 56.5568 12 56.8502 12.32C57.1435 12.6267 57.4968 12.78 57.9102 12.78ZM65.0969 15C65.0435 15 65.0169 14.9667 65.0169 14.9V3.5H62.4169C62.3502 3.5 62.3169 3.46667 62.3169 3.4L62.3369 1.16C62.3369 1.10667 62.3635 1.08 62.4169 1.08H70.0169C70.0835 1.08 70.1169 1.10667 70.1169 1.16V3.4C70.1169 3.46667 70.0902 3.5 70.0369 3.5H67.4169L67.4369 14.9C67.4369 14.9667 67.4102 15 67.3569 15H65.0969ZM74.3555 15.2C73.6355 15.2 72.9755 15.02 72.3755 14.66C71.7888 14.2867 71.3155 13.8 70.9555 13.2C70.5955 12.5867 70.4155 11.9133 70.4155 11.18L70.4355 4.84C70.4355 4.10667 70.6088 3.44 70.9555 2.84C71.3155 2.24 71.7955 1.76 72.3955 1.4C72.9955 1.04 73.6488 0.86 74.3555 0.86C75.0755 0.86 75.7288 1.04 76.3155 1.4C76.9021 1.76 77.3688 2.24 77.7155 2.84C78.0755 3.44 78.2555 4.10667 78.2555 4.84L78.2755 11.18C78.2755 11.9133 78.0955 12.5867 77.7355 13.2C77.3888 13.8 76.9155 14.2867 76.3155 14.66C75.7288 15.02 75.0755 15.2 74.3555 15.2ZM74.3555 12.78C74.7555 12.78 75.1021 12.62 75.3955 12.3C75.7021 11.9667 75.8555 11.5933 75.8555 11.18L75.8355 4.84C75.8355 4.4 75.6955 4.02667 75.4155 3.72C75.1355 3.41333 74.7821 3.26 74.3555 3.26C73.9421 3.26 73.5888 3.41333 73.2955 3.72C73.0021 4.01333 72.8555 4.38667 72.8555 4.84V11.18C72.8555 11.62 73.0021 12 73.2955 12.32C73.5888 12.6267 73.9421 12.78 74.3555 12.78Z" fill="#2F3035"/>
</symbol><symbol id="logo" viewBox="0 0 80 76">
<path d="M0.9 70C0.833333 70 0.8 69.9667 0.8 69.9L0.84 56.16C0.84 56.1067 0.866667 56.08 0.92 56.08L4.66 56.06C5.39333 56.0467 6.06 56.22 6.66 56.58C7.27333 56.94 7.76 57.4267 8.12 58.04C8.48 58.64 8.66 59.3067 8.66 60.04V65.78C8.66 66.5533 8.47333 67.26 8.1 67.9C7.72667 68.5267 7.22667 69.0267 6.6 69.4C5.97333 69.7733 5.26667 69.9667 4.48 69.98L0.9 70ZM3.24 67.54H4.48C4.97333 67.54 5.38667 67.3667 5.72 67.02C6.06667 66.6733 6.24 66.26 6.24 65.78V60.02C6.24 59.5933 6.08 59.2267 5.76 58.92C5.45333 58.6 5.08667 58.4467 4.66 58.46L3.26 58.48L3.24 67.54ZM10.3136 70C10.2603 70 10.2336 69.9667 10.2336 69.9L10.2736 56.16C10.2736 56.1067 10.3003 56.08 10.3536 56.08H14.3936C15.1136 56.08 15.7736 56.26 16.3736 56.62C16.9869 56.9667 17.4736 57.44 17.8336 58.04C18.1936 58.6267 18.3736 59.2933 18.3736 60.04C18.3736 60.5333 18.3003 60.98 18.1536 61.38C18.0069 61.7667 17.8336 62.1 17.6336 62.38C17.4336 62.6467 17.2536 62.8467 17.0936 62.98C17.8136 63.78 18.1736 64.72 18.1736 65.8L18.1936 69.9C18.1936 69.9667 18.1603 70 18.0936 70H15.8336C15.7803 70 15.7536 69.98 15.7536 69.94V65.8C15.7536 65.32 15.5803 64.9067 15.2336 64.56C14.9003 64.2 14.4869 64.02 13.9936 64.02H12.6736L12.6536 69.9C12.6536 69.9667 12.6269 70 12.5736 70H10.3136ZM12.6736 61.62H14.3936C14.8069 61.62 15.1736 61.4667 15.4936 61.16C15.8136 60.8533 15.9736 60.48 15.9736 60.04C15.9736 59.6133 15.8136 59.2467 15.4936 58.94C15.1869 58.6333 14.8203 58.48 14.3936 58.48H12.6736V61.62ZM19.982 70C19.9154 70 19.882 69.9667 19.882 69.9L19.902 56.16C19.902 56.1067 19.9287 56.08 19.982 56.08H22.222C22.2754 56.08 22.302 56.1067 22.302 56.16L22.322 69.9C22.322 69.9667 22.2954 70 22.242 70H19.982ZM26.3213 70C26.2679 70 26.2346 69.9667 26.2212 69.9L23.4613 56.16C23.4479 56.1067 23.4746 56.08 23.5413 56.08H25.8013C25.8546 56.08 25.8879 56.1067 25.9013 56.16L27.5413 65.32L29.1413 56.16C29.1546 56.1067 29.1879 56.08 29.2413 56.08H31.4813C31.5479 56.08 31.5746 56.1067 31.5613 56.16L28.8413 69.9C28.8279 69.9667 28.7946 70 28.7413 70H26.3213ZM32.8136 70C32.7603 70 32.7336 69.9667 32.7336 69.9L32.7536 56.16C32.7536 56.1067 32.7803 56.08 32.8336 56.08H39.2536C39.3069 56.08 39.3336 56.1133 39.3336 56.18V58.42C39.3336 58.4733 39.3069 58.5 39.2536 58.5H35.1536V61.62H39.2536C39.3069 61.62 39.3336 61.6467 39.3336 61.7L39.3536 63.96C39.3536 64.0133 39.3269 64.04 39.2736 64.04H35.1536V67.54H39.2736C39.3269 67.54 39.3536 67.5733 39.3536 67.64V69.92C39.3536 69.9733 39.3269 70 39.2736 70H32.8136ZM44.1808 70C44.1274 70 44.1008 69.9667 44.1008 69.9L44.1408 56.16C44.1408 56.1067 44.1674 56.08 44.2208 56.08H46.6608C46.7141 56.08 46.7608 56.1067 46.8008 56.16L48.6208 58.8L50.4408 56.16C50.4808 56.1067 50.5274 56.08 50.5808 56.08H53.0408C53.0941 56.08 53.1208 56.1067 53.1208 56.16L53.1608 69.9C53.1608 69.9667 53.1341 70 53.0808 70H50.8208C50.7674 70 50.7408 69.9667 50.7408 69.9L50.7208 59.7L48.6208 62.74L46.5408 59.7L46.5208 69.9C46.5208 69.9667 46.4941 70 46.4408 70H44.1808ZM58.543 70.2C57.823 70.2 57.163 70.02 56.563 69.66C55.9763 69.2867 55.503 68.8 55.143 68.2C54.783 67.5867 54.603 66.9133 54.603 66.18L54.623 59.84C54.623 59.1067 54.7963 58.44 55.143 57.84C55.503 57.24 55.983 56.76 56.583 56.4C57.183 56.04 57.8363 55.86 58.543 55.86C59.263 55.86 59.9163 56.04 60.503 56.4C61.0896 56.76 61.5563 57.24 61.903 57.84C62.263 58.44 62.443 59.1067 62.443 59.84L62.463 66.18C62.463 66.9133 62.283 67.5867 61.923 68.2C61.5763 68.8 61.103 69.2867 60.503 69.66C59.9163 70.02 59.263 70.2 58.543 70.2ZM58.543 67.78C58.943 67.78 59.2896 67.62 59.583 67.3C59.8896 66.9667 60.043 66.5933 60.043 66.18L60.023 59.84C60.023 59.4 59.883 59.0267 59.603 58.72C59.323 58.4133 58.9696 58.26 58.543 58.26C58.1296 58.26 57.7763 58.4133 57.483 58.72C57.1896 59.0133 57.043 59.3867 57.043 59.84V66.18C57.043 66.62 57.1896 67 57.483 67.32C57.7763 67.6267 58.1296 67.78 58.543 67.78ZM65.7297 70C65.6764 70 65.6497 69.9667 65.6497 69.9V58.5H63.0497C62.983 58.5 62.9497 58.4667 62.9497 58.4L62.9697 56.16C62.9697 56.1067 62.9964 56.08 63.0497 56.08H70.6497C70.7164 56.08 70.7497 56.1067 70.7497 56.16V58.4C70.7497 58.4667 70.723 58.5 70.6697 58.5H68.0497L68.0697 69.9C68.0697 69.9667 68.043 70 67.9897 70H65.7297ZM74.9883 70.2C74.2683 70.2 73.6083 70.02 73.0083 69.66C72.4216 69.2867 71.9483 68.8 71.5883 68.2C71.2283 67.5867 71.0483 66.9133 71.0483 66.18L71.0683 59.84C71.0683 59.1067 71.2416 58.44 71.5883 57.84C71.9483 57.24 72.4283 56.76 73.0283 56.4C73.6283 56.04 74.2816 55.86 74.9883 55.86C75.7083 55.86 76.3616 56.04 76.9483 56.4C77.5349 56.76 78.0016 57.24 78.3483 57.84C78.7083 58.44 78.8883 59.1067 78.8883 59.84L78.9083 66.18C78.9083 66.9133 78.7283 67.5867 78.3683 68.2C78.0216 68.8 77.5483 69.2867 76.9483 69.66C76.3616 70.02 75.7083 70.2 74.9883 70.2ZM74.9883 67.78C75.3883 67.78 75.7349 67.62 76.0283 67.3C76.3349 66.9667 76.4883 66.5933 76.4883 66.18L76.4683 59.84C76.4683 59.4 76.3283 59.0267 76.0483 58.72C75.7683 58.4133 75.4149 58.26 74.9883 58.26C74.5749 58.26 74.2216 58.4133 73.9283 58.72C73.6349 59.0133 73.4883 59.3867 73.4883 59.84V66.18C73.4883 66.62 73.6349 67 73.9283 67.32C74.2216 67.6267 74.5749 67.78 74.9883 67.78Z" fill="currentColor"/>
<path d="M59.0441 7.95599C58.3406 7.2526 57.2364 7.14888 56.4141 7.70921C53.3162 9.82072 37.7781 20.4384 36.1082 22.1082C33.6866 24.53 33.6866 28.4702 36.1082 30.8919C37.319 32.1027 38.9097 32.7081 40.5001 32.7081C42.0905 32.7081 43.681 32.1027 44.8919 30.8919C46.5618 29.222 57.1794 13.6839 59.291 10.5861C59.8511 9.76389 59.7475 8.65958 59.0441 7.95599ZM41.9639 27.964C41.1568 28.7713 39.8433 28.7713 39.0362 27.964C38.2289 27.1569 38.2288 25.8438 39.0357 25.0366C39.6846 24.3954 44.0961 21.2492 49.5239 17.4763C45.7511 22.9041 42.6049 27.3154 41.9639 27.964Z" fill="currentColor"/>
<path d="M23.5473 36.1294L20.9915 37.3762C19.1214 34.0386 18.1406 30.3134 18.1406 26.5C18.1406 23.706 18.6558 21.03 19.5961 18.5621L22.5246 19.9668C22.8134 20.1053 23.1183 20.171 23.4186 20.171C24.1901 20.171 24.9307 19.7377 25.2867 18.9955C25.7811 17.9646 25.3463 16.7279 24.3153 16.2334L21.4239 14.8465C25.0177 8.98547 31.2356 4.89919 38.4298 4.23565V7.34951C38.4298 8.49294 39.3567 9.41982 40.5001 9.41982C41.6435 9.41982 42.5704 8.49294 42.5704 7.34951V4.2341C45.037 4.45863 47.4236 5.08676 49.6893 6.10949C50.7312 6.57997 51.9575 6.11632 52.428 5.07444C52.8985 4.03224 52.435 2.8061 51.3928 2.33562C47.9596 0.78589 44.2948 0 40.5 0C33.4216 0 26.7669 2.75641 21.7616 7.7616C16.7565 12.7669 14 19.4216 14 26.5C14 31.7306 15.5525 36.8178 18.4898 41.2111C18.8854 41.8027 19.5395 42.131 20.2122 42.131C20.518 42.131 20.8277 42.0632 21.1187 41.9212L25.3628 39.8509C26.3905 39.3496 26.8172 38.1102 26.3159 37.0825C25.8145 36.0549 24.5751 35.6283 23.5473 36.1294Z" fill="currentColor"/>
<path d="M64.6643 15.6073C64.194 14.5652 62.968 14.1015 61.9255 14.5721C60.8834 15.0426 60.42 16.2688 60.8905 17.3109C62.1971 20.2049 62.8594 23.2966 62.8594 26.5C62.8594 30.3191 61.8754 34.0504 59.9998 37.3917L57.3315 36.1211C56.2994 35.6296 55.0639 36.0678 54.5722 37.1002C54.0806 38.1325 54.519 39.368 55.5514 39.8596L59.899 41.9299C60.185 42.066 60.4882 42.1311 60.788 42.1311C61.4608 42.1311 62.1151 41.8024 62.5102 41.2113C65.4475 36.8179 67.0001 31.7307 67.0001 26.5C67.0001 22.7053 66.2142 19.0404 64.6643 15.6073Z" fill="currentColor"/>
</symbol><symbol id="sale" viewBox="0 0 17 17">
<path d="M6.14209 1.98291C6.73682 2.65967 7.03418 3.57568 7.03418 4.73096C7.03418 5.88623 6.73682 6.80566 6.14209 7.48926C5.54736 8.17285 4.75098 8.51465 3.75293 8.51465C2.75488 8.51465 1.9585 8.17285 1.36377 7.48926C0.775879 6.80566 0.481934 5.88623 0.481934 4.73096C0.481934 3.57568 0.775879 2.65967 1.36377 1.98291C1.9585 1.29932 2.75488 0.95752 3.75293 0.95752C4.75098 0.95752 5.54736 1.29932 6.14209 1.98291ZM3.75293 6.90479C4.13574 6.90479 4.43311 6.71338 4.64502 6.33057C4.86377 5.94092 4.97314 5.40771 4.97314 4.73096C4.97314 4.04736 4.86377 3.51416 4.64502 3.13135C4.43311 2.7417 4.13574 2.54688 3.75293 2.54688C3.37695 2.54688 3.07959 2.7417 2.86084 3.13135C2.64893 3.51416 2.54297 4.04736 2.54297 4.73096C2.54297 5.40771 2.64893 5.94092 2.86084 6.33057C3.07959 6.71338 3.37695 6.90479 3.75293 6.90479ZM3.95801 16H1.72266L7.45459 8.15576L12.5405 1.20361H14.7554L9.17725 8.84277L3.95801 16ZM15.1143 9.65283C15.709 10.3364 16.0063 11.2559 16.0063 12.4111C16.0063 13.5664 15.709 14.4858 15.1143 15.1694C14.5195 15.8462 13.7231 16.1846 12.7251 16.1846C11.7271 16.1846 10.9307 15.8462 10.3359 15.1694C9.74805 14.4858 9.4541 13.5664 9.4541 12.4111C9.4541 11.2559 9.74805 10.3364 10.3359 9.65283C10.9307 8.96924 11.7271 8.62744 12.7251 8.62744C13.7231 8.62744 14.5195 8.96924 15.1143 9.65283ZM11.833 14.0005C12.0518 14.3901 12.3491 14.585 12.7251 14.585C13.1011 14.585 13.3984 14.3901 13.6172 14.0005C13.8359 13.6108 13.9453 13.0776 13.9453 12.4009C13.9453 11.7241 13.8359 11.1909 13.6172 10.8013C13.3984 10.4116 13.1011 10.2168 12.7251 10.2168C12.3491 10.2168 12.0518 10.4116 11.833 10.8013C11.6211 11.1909 11.5151 11.7241 11.5151 12.4009C11.5151 13.0776 11.6211 13.6108 11.833 14.0005Z" fill="currentColor"/>
</symbol><symbol id="search" viewBox="0 0 25 24">
<path d="M24.0889 22.2056L18.4027 16.8577C20.2569 15.0556 21.4313 12.6142 21.4313 9.88208C21.4313 4.41787 16.7339 0 10.9241 0C5.1143 0 0.416992 4.41787 0.416992 9.88208C0.416992 15.3463 5.1143 19.7642 10.9241 19.7642C13.1492 19.7642 15.2506 19.0666 16.9812 17.9621L22.791 23.4263C22.9764 23.6007 23.2236 23.6589 23.4709 23.6589C23.7181 23.6589 23.9653 23.6007 24.1507 23.4263C24.4598 23.0776 24.4598 22.5544 24.0889 22.2056ZM2.27119 9.88208C2.27119 5.40608 6.16501 1.7439 10.9241 1.7439C15.6832 1.7439 19.5771 5.40608 19.5771 9.88208C19.5771 14.3581 15.6832 18.0203 10.9241 18.0203C6.16501 18.0203 2.27119 14.3581 2.27119 9.88208Z" fill="currentColor"/>
</symbol><symbol id="store" viewBox="0 0 18 22">
<path d="M6.83333 13.3429C6.55719 13.3429 6.33333 13.5667 6.33333 13.8429V19.7C6.33333 19.9761 6.10948 20.2 5.83333 20.2H1.5C1.22386 20.2 1 19.9761 1 19.7V8.08711C1 7.94115 1.06378 7.80247 1.1746 7.70748L8.6746 1.27891C8.86185 1.11842 9.13815 1.11842 9.3254 1.27891L16.8254 7.70748C16.9362 7.80247 17 7.94115 17 8.08711V19.7C17 19.9761 16.7761 20.2 16.5 20.2H12.1667C11.8905 20.2 11.6667 19.9761 11.6667 19.7V13.8429C11.6667 13.5667 11.4428 13.3429 11.1667 13.3429H6.83333Z" stroke="currentColor" stroke-width="2" stroke-linecap="round" stroke-linejoin="round"/>
</symbol><symbol id="user" viewBox="0 0 24 24">
<path d="M20.8225 18.096C17.3835 17.302 14.1825 16.606 15.7325 13.678C20.4525 4.766 16.9835 0 12.0005 0C6.91849 0 3.53649 4.949 8.26849 13.678C9.86549 16.623 6.54349 17.319 3.17849 18.096C0.105486 18.806 -0.00951398 20.332 0.000486018 23L0.00448602 24H23.9945L23.9985 23.031C24.0105 20.343 23.9065 18.809 20.8225 18.096Z" fill="currentColor"/>
</symbol><symbol id="vk" viewBox="0 0 30 30">
<path d="M24.8938 16.285C24.4088 15.6725 24.5475 15.4 24.8938 14.8525C24.9 14.8462 28.9037 9.31375 29.3162 7.4375L29.3188 7.43625C29.5238 6.7525 29.3188 6.25 28.3275 6.25H25.0475C24.2125 6.25 23.8275 6.68125 23.6213 7.16375C23.6213 7.16375 21.9513 11.1613 19.5887 13.7525C18.8263 14.5012 18.4738 14.7413 18.0575 14.7413C17.8525 14.7413 17.5338 14.5013 17.5338 13.8175V7.43625C17.5338 6.61625 17.3 6.25 16.6087 6.25H11.4513C10.9275 6.25 10.6163 6.6325 10.6163 6.98875C10.6163 7.76625 11.7975 7.945 11.92 10.1325V14.8787C11.92 15.9187 11.7312 16.11 11.3125 16.11C10.1975 16.11 7.49125 12.0962 5.8875 7.5025C5.56375 6.61125 5.2475 6.25125 4.40625 6.25125H1.125C0.18875 6.25125 0 6.6825 0 7.165C0 8.0175 1.115 12.2562 5.185 17.8562C7.8975 21.6788 11.7175 23.75 15.1925 23.75C17.2812 23.75 17.5363 23.29 17.5363 22.4988C17.5363 18.8463 17.3475 18.5012 18.3937 18.5012C18.8787 18.5012 19.7137 18.7413 21.6637 20.585C23.8925 22.7712 24.2588 23.75 25.5063 23.75H28.7862C29.7212 23.75 30.195 23.29 29.9225 22.3825C29.2987 20.4738 25.0838 16.5475 24.8938 16.285Z" fill="currentColor"/>
</symbol><symbol id="youtube" viewBox="0 0 30 30">
<path d="M13.1318 17.8102L18.0111 15L13.1318 12.1898V17.8102Z" fill="currentColor"/>
<path d="M15 0C6.717 0 0 6.717 0 15C0 23.283 6.717 30 15 30C23.283 30 30 23.283 30 15C30 6.717 23.283 0 15 0ZM24.3727 15.0153C24.3727 15.0153 24.3727 18.0574 23.9868 19.5243C23.7705 20.3272 23.1374 20.9603 22.3345 21.1764C20.8676 21.5625 15 21.5625 15 21.5625C15 21.5625 9.14772 21.5625 7.66548 21.161C6.86256 20.945 6.22948 20.3117 6.01318 19.5087C5.62706 18.0574 5.62706 15 5.62706 15C5.62706 15 5.62706 11.9582 6.01318 10.4913C6.22925 9.68834 6.8779 9.03969 7.66548 8.82362C9.13239 8.4375 15 8.4375 15 8.4375C15 8.4375 20.8676 8.4375 22.3345 8.83896C23.1374 9.05502 23.7705 9.68834 23.9868 10.4913C24.3883 11.9582 24.3727 15.0153 24.3727 15.0153Z" fill="currentColor"/>
</symbol></svg>